<svg xmlns="http://www.w3.org/2000/svg" width="65.098" height="46.202"><g id="Group_8532" data-name="Group 8532" transform="translate(-138 -16.664)"><path id="Vector" d="M17.375,0V14.839a9.21,9.21,0,0,0-6-1.992A11.388,11.388,0,0,0,.011,22.808c3.9-.236,5.826-2.465,8.141-3.74A6.084,6.084,0,0,1,10.9,18.2h.456a5.937,5.937,0,1,1,0,11.871,4.03,4.03,0,0,1-.589-.028h-.054l-.245-.031-.182-.031-.12-.02a6.078,6.078,0,0,1-1.708-.606C6,28.113,4.075,25.691,0,25.446a11.32,11.32,0,0,0,11.39,9.989,9.363,9.363,0,0,0,6-1.992v1.562h5.575V0Z" transform="translate(161.918 16.664)" fill="#fff"/><path id="Vector-2" data-name="Vector" d="M14.135,16.592a6.067,6.067,0,0,1-1.708.606l-.117.02-.185.031-.242.031h-.057c-.194.017-.39.028-.6.028a5.937,5.937,0,1,1,0-11.871h.456a6.1,6.1,0,0,1,2.753.871c2.4,1.326,4.394,3.677,8.6,3.76V.407H17.446V1.995A9.374,9.374,0,0,0,11.45,0a11.283,11.283,0,1,0,0,22.566,9.215,9.215,0,0,0,6-1.992v.956c0,4.949-2.679,6.583-6,6.583a6,6,0,0,1-4.584-2.177L2.358,29.068A11.46,11.46,0,0,0,11.45,33.48c4.226,0,11.583-1.5,11.583-13.029V12.678c-4.388.085-6.361,2.638-8.91,3.922" transform="translate(138 29.386)" fill="#fff"/><path id="Vector-3" data-name="Vector" d="M2.961,15.237A9.357,9.357,0,0,0,8.9,17.46c1.993,0,2.631-.817,2.631-1.588C11.535,12.653.6,14.648.6,6.893.6,2.948,3.414,0,8.223,0c1.9,0,5.41.453,7.85,2.721l-2.95,3.984A8.585,8.585,0,0,0,8.269,5.074c-1.859,0-2.224.814-2.224,1.36,0,3.037,10.8,1.585,10.8,9.249,0,3.947-2.847,6.85-8.3,6.85A13.342,13.342,0,0,1,0,19.495Z" transform="translate(186.252 29.38)" fill="#fff"/></g></svg>